<svg width="259" height="25" viewBox="0 0 259 25" fill="none" xmlns="http://www.w3.org/2000/svg">
<path d="M10.04 1.344C12.408 1.344 14.4773 1.824 16.248 2.784C18.04 3.744 19.416 5.07733 20.376 6.784C21.336 8.49067 21.816 10.432 21.816 12.608C21.816 14.7627 21.336 16.704 20.376 18.432C19.416 20.16 18.04 21.5253 16.248 22.528C14.4773 23.5093 12.408 24 10.04 24H0.6V1.344H10.04ZM9.4 17.664C11 17.664 12.2693 17.2267 13.208 16.352C14.1467 15.4773 14.616 14.2293 14.616 12.608C14.616 10.9867 14.1467 9.73867 13.208 8.864C12.2693 7.98933 11 7.552 9.4 7.552H7.704V17.664H9.4ZM50.7493 20.576H43.1973L42.0773 24H34.6213L42.9093 1.344H51.1013L59.3573 24H51.8693L50.7493 20.576ZM49.0213 15.232L46.9733 8.928L44.9253 15.232H49.0213ZM88.8113 1.344V6.976H79.9153V10.112H86.3153V15.456H79.9153V24H72.8113V1.344H88.8113ZM117.01 10.144V16H102.098V10.144H117.01ZM149.335 1.344V6.976H140.439V10.112H146.839V15.456H140.439V24H133.335V1.344H149.335ZM174.621 24.224C172.488 24.224 170.525 23.7227 168.733 22.72C166.963 21.7173 165.555 20.3307 164.509 18.56C163.464 16.7893 162.941 14.7947 162.941 12.576C162.941 10.3573 163.464 8.36267 164.509 6.592C165.555 4.82133 166.963 3.44533 168.733 2.464C170.525 1.46133 172.488 0.959999 174.621 0.959999C176.755 0.959999 178.707 1.46133 180.477 2.464C182.248 3.44533 183.645 4.82133 184.669 6.592C185.715 8.36267 186.237 10.3573 186.237 12.576C186.237 14.7947 185.715 16.7893 184.669 18.56C183.645 20.3307 182.237 21.7173 180.445 22.72C178.675 23.7227 176.733 24.224 174.621 24.224ZM174.621 17.6C176.029 17.6 177.117 17.152 177.885 16.256C178.653 15.3387 179.037 14.112 179.037 12.576C179.037 11.0187 178.653 9.792 177.885 8.896C177.117 7.97867 176.029 7.52 174.621 7.52C173.192 7.52 172.093 7.97867 171.325 8.896C170.557 9.792 170.173 11.0187 170.173 12.576C170.173 14.112 170.557 15.3387 171.325 16.256C172.093 17.152 173.192 17.6 174.621 17.6ZM211.68 24.224C209.547 24.224 207.584 23.7227 205.792 22.72C204.021 21.7173 202.613 20.3307 201.568 18.56C200.523 16.7893 200 14.7947 200 12.576C200 10.3573 200.523 8.36267 201.568 6.592C202.613 4.82133 204.021 3.44533 205.792 2.464C207.584 1.46133 209.547 0.959999 211.68 0.959999C213.813 0.959999 215.765 1.46133 217.536 2.464C219.307 3.44533 220.704 4.82133 221.728 6.592C222.773 8.36267 223.296 10.3573 223.296 12.576C223.296 14.7947 222.773 16.7893 221.728 18.56C220.704 20.3307 219.296 21.7173 217.504 22.72C215.733 23.7227 213.792 24.224 211.68 24.224ZM211.68 17.6C213.088 17.6 214.176 17.152 214.944 16.256C215.712 15.3387 216.096 14.112 216.096 12.576C216.096 11.0187 215.712 9.792 214.944 8.896C214.176 7.97867 213.088 7.52 211.68 7.52C210.251 7.52 209.152 7.97867 208.384 8.896C207.616 9.792 207.232 11.0187 207.232 12.576C207.232 14.112 207.616 15.3387 208.384 16.256C209.152 17.152 210.251 17.6 211.68 17.6ZM247.139 1.344C249.507 1.344 251.576 1.824 253.347 2.784C255.139 3.744 256.515 5.07733 257.475 6.784C258.435 8.49067 258.915 10.432 258.915 12.608C258.915 14.7627 258.435 16.704 257.475 18.432C256.515 20.16 255.139 21.5253 253.347 22.528C251.576 23.5093 249.507 24 247.139 24H237.699V1.344H247.139ZM246.499 17.664C248.099 17.664 249.368 17.2267 250.307 16.352C251.245 15.4773 251.715 14.2293 251.715 12.608C251.715 10.9867 251.245 9.73867 250.307 8.864C249.368 7.98933 248.099 7.552 246.499 7.552H244.803V17.664H246.499Z" fill="black"/>
</svg>
